<svg xmlns="http://www.w3.org/2000/svg" viewBox="0 0 760 570"
     width="760" height="570"
     font-family="'Helvetica Neue', Helvetica, Arial, sans-serif">
  <defs>
    <marker id="ah-blue" markerWidth="10" markerHeight="7" refX="10" refY="3.5" orient="auto">
      <polygon points="0 0, 10 3.5, 0 7" fill="#1b6ec2"/>
    </marker>
    <marker id="ah-green" markerWidth="10" markerHeight="7" refX="10" refY="3.5" orient="auto">
      <polygon points="0 0, 10 3.5, 0 7" fill="#1a7a3d"/>
    </marker>
    <marker id="ah-slate" markerWidth="10" markerHeight="7" refX="10" refY="3.5" orient="auto">
      <polygon points="0 0, 10 3.5, 0 7" fill="#495057"/>
    </marker>
  </defs>
  
  <rect width="760" height="570" fill="#f4f4f4"/>
  
  <rect width="760" height="52" fill="#1a7a3d"/>
  <text x="16" y="23" fill="white" font-size="14" font-weight="bold">AFTER — Proposed Hierarchy: Three Visually Distinct Levels</text>
  <text x="16" y="42" fill="rgba(255,255,255,0.88)" font-size="11">Group ← Column ← Block each has a unique visual treatment that communicates nesting depth instantly</text>
  
  
  <rect x="20" y="68" width="4" height="348" rx="0" fill="#1b6ec2"/>
  
  
  <rect x="24" y="68" width="556" height="34" rx="0"
        fill="#e2e6ea" stroke="#aaa" stroke-width="1"/>
  
  <rect x="25" y="100" width="554" height="2" fill="#e2e6ea"/>
  
  <text x="36" y="89" fill="#212529" font-size="11" font-weight="bold">≡  Group: Full Width</text>
  <text x="510" y="89" fill="#495057" font-size="11">▾  ✕</text>
  
  <rect x="24" y="100" width="556" height="314" fill="#fafafa" stroke="#aaa" stroke-width="1"/>
  
  
  <rect x="34" y="112" width="258" height="294" rx="4"
        fill="#ffffff" stroke="#ccc" stroke-width="1"/>
  <text x="42" y="128" fill="#aaa" font-size="9" font-style="italic">Column 1</text>
  
  <rect x="306" y="112" width="266" height="294" rx="4"
        fill="#ffffff" stroke="#ccc" stroke-width="1"/>
  <text x="314" y="128" fill="#aaa" font-size="9" font-style="italic">Column 2</text>
  
  <text x="296" y="260" fill="#ccc" font-size="8" text-anchor="middle">gap</text>
  
  
  
  <rect x="42" y="136" width="242" height="74" rx="3" fill="white" stroke="#ccc" stroke-width="1"/>
  
  <rect x="42" y="136" width="242" height="24" rx="3" fill="#f8f9fa"/>
  <rect x="42" y="158" width="242" height="2" fill="#f8f9fa"/>
  <rect x="43" y="137" width="240" height="1" fill="#f8f9fa"/>
  
  <rect x="42" y="136" width="3" height="74" rx="0" fill="#ccc"/>
  
  <line x1="42" y1="160" x2="284" y2="160" stroke="#ccc" stroke-width="1"/>
  <text x="54" y="152" fill="#495057" font-size="10">≡  Title Block  ▾  ✕</text>
  <text x="54" y="180" fill="#999" font-size="10" font-style="italic">Title content here…</text>
  
  <rect x="42" y="224" width="242" height="74" rx="3" fill="white" stroke="#ccc" stroke-width="1"/>
  <rect x="42" y="224" width="242" height="24" rx="3" fill="#f8f9fa"/>
  <rect x="42" y="246" width="242" height="2" fill="#f8f9fa"/>
  <rect x="43" y="225" width="240" height="1" fill="#f8f9fa"/>
  <rect x="42" y="224" width="3" height="74" rx="0" fill="#ccc"/>
  <line x1="42" y1="248" x2="284" y2="248" stroke="#ccc" stroke-width="1"/>
  <text x="54" y="240" fill="#495057" font-size="10">≡  Image Block  ▾  ✕</text>
  <text x="54" y="268" fill="#999" font-size="10" font-style="italic">Image content here…</text>
  
  <rect x="314" y="136" width="250" height="74" rx="3" fill="white" stroke="#ccc" stroke-width="1"/>
  <rect x="314" y="136" width="250" height="24" rx="3" fill="#f8f9fa"/>
  <rect x="314" y="158" width="250" height="2" fill="#f8f9fa"/>
  <rect x="315" y="137" width="248" height="1" fill="#f8f9fa"/>
  <rect x="314" y="136" width="3" height="74" rx="0" fill="#ccc"/>
  <line x1="314" y1="160" x2="564" y2="160" stroke="#ccc" stroke-width="1"/>
  <text x="326" y="152" fill="#495057" font-size="10">≡  Text Block  ▾  ✕</text>
  <text x="326" y="180" fill="#999" font-size="10" font-style="italic">Text content here…</text>
  
  
  <line x1="596" y1="100" x2="26" y2="100" stroke="#1b6ec2" stroke-width="1.5" marker-end="url(#ah-blue)"/>
  <rect x="596" y="84" width="152" height="32" rx="3" fill="#1b6ec2"/>
  <text x="604" y="99" fill="white" font-size="10" font-weight="bold">Group left accent stripe</text>
  <text x="604" y="112" fill="rgba(255,255,255,0.85)" font-size="9">4px solid #1b6ec2 (--bb-color-primary)</text>
  
  <line x1="596" y1="140" x2="582" y2="85" stroke="#1b6ec2" stroke-width="1.5" marker-end="url(#ah-blue)"/>
  <rect x="596" y="128" width="152" height="32" rx="3" fill="#1b6ec2"/>
  <text x="604" y="143" fill="white" font-size="10" font-weight="bold">Group full-width header</text>
  <text x="604" y="156" fill="rgba(255,255,255,0.85)" font-size="9">bg: #e2e6ea (--bb-color-neutral-200)</text>
  
  <line x1="596" y1="230" x2="296" y2="230" stroke="#1a7a3d" stroke-width="1.5" marker-end="url(#ah-green)"/>
  <rect x="596" y="218" width="152" height="32" rx="3" fill="#1a7a3d"/>
  <text x="604" y="233" fill="white" font-size="10" font-weight="bold">Column: visible boundary</text>
  <text x="604" y="246" fill="rgba(255,255,255,0.85)" font-size="9">border: 1px solid #ccc (--bb-color-border-light)</text>
  
  <line x1="596" y1="310" x2="285" y2="152" stroke="#495057" stroke-width="1.5" marker-end="url(#ah-slate)"/>
  <rect x="596" y="298" width="152" height="32" rx="3" fill="#495057"/>
  <text x="604" y="313" fill="white" font-size="10" font-weight="bold">Block: quiet integrated bar</text>
  <text x="604" y="326" fill="rgba(255,255,255,0.85)" font-size="9">bg: #f8f9fa (--bb-color-neutral-100)</text>
  
  <line x1="596" y1="356" x2="47" y2="175" stroke="#495057" stroke-width="1.5" marker-end="url(#ah-slate)"/>
  <rect x="596" y="344" width="152" height="32" rx="3" fill="#495057"/>
  <text x="604" y="359" fill="white" font-size="10" font-weight="bold">Block left accent stripe</text>
  <text x="604" y="372" fill="rgba(255,255,255,0.85)" font-size="9">3px solid #ccc (--bb-color-border-light)</text>
  
  <rect x="20" y="434" width="720" height="120" rx="4"
        fill="#e8f4fd" stroke="#1b6ec2" stroke-width="1.5"/>
  <text x="32" y="454" fill="#0c4a8a" font-size="12" font-weight="bold">Visual Hierarchy Key</text>
  
  <rect x="32" y="464" width="14" height="40" fill="#1b6ec2"/>
  <rect x="46" y="464" width="80" height="40" fill="#e2e6ea" stroke="#aaa" stroke-width="1"/>
  <text x="140" y="479" fill="#0c4a8a" font-size="10" font-weight="bold">Level 1 — Group</text>
  <text x="140" y="494" fill="#495057" font-size="9">Left accent (#1b6ec2) + full-width header stripe (#e2e6ea)</text>
  
  <rect x="32" y="512" width="80" height="34" rx="3" fill="white" stroke="#ccc" stroke-width="1.5"/>
  <text x="140" y="527" fill="#0c4a8a" font-size="10" font-weight="bold">Level 2 — Column</text>
  <text x="140" y="541" fill="#495057" font-size="9">Visible card container: white bg (#fff), border 1px #ccc, gap between columns replaces border-left</text>
  
  <rect x="230" y="512" width="80" height="34" rx="3" fill="white" stroke="#ccc" stroke-width="1"/>
  <rect x="230" y="512" width="4" height="34" fill="#ccc"/>
  <rect x="230" y="512" width="80" height="16" rx="3" fill="#f8f9fa"/>
  <rect x="230" y="526" width="80" height="1" fill="#ccc"/>
  <text x="324" y="527" fill="#0c4a8a" font-size="10" font-weight="bold">Level 3 — Block</text>
  <text x="324" y="541" fill="#495057" font-size="9">Quiet top bar (#f8f9fa) + left accent (#ccc). No floating tab — integrated into card border.</text>
</svg>
